<?xml version="1.0" encoding="UTF-8"?>
<!DOCTYPE svg PUBLIC "-//W3C//DTD SVG 1.1//EN" "http://www.w3.org/Graphics/SVG/1.1/DTD/svg11.dtd">
<!-- Creator: CorelDRAW X5 -->
<svg xmlns="http://www.w3.org/2000/svg" xml:space="preserve" width="210mm" height="123.659mm" style="shape-rendering:geometricPrecision; text-rendering:geometricPrecision; image-rendering:optimizeQuality; fill-rule:evenodd; clip-rule:evenodd"
viewBox="0 0 21000 12366"
 xmlns:xlink="http://www.w3.org/1999/xlink"
 xmlns:svg="http://www.w3.org/2000/svg">
 <defs>
  <style type="text/css">
   <![CDATA[
    .fil2 {fill:#253B73}
    .fil1 {fill:#B52532}
    .fil0 {fill:#FFFFFE}
   ]]>
  </style>
 </defs>
 <g id="Layer_x0020_1">
  <metadata id="CorelCorpID_0Corel-Layer"/>
 </g>
 <g id="svg2">
  <metadata id="CorelCorpID_1Corel-Layer"/>
  <path class="fil0" d="M8301 12063l-1384 0 0 -11762 2142 0 1433 9702c-214,-2306 -494,-6029 -494,-7989l0 -1713 1384 0 0 11762 -1961 0 -1318 -9423c116,2109 198,4629 198,6046l0 3377m3872 0l0 -11762 1960 0c1301,0 2109,708 2109,2356l0 1730c0,1071 -330,1614 -791,1894 461,297 791,823 791,1730l0 1713c0,1614 -857,2340 -2109,2340l-1960 0zm1581 -10279l0 3888 198 0c560,0 709,-214 709,-857l0 -2240c0,-544 -165,-791 -642,-791l-264 0zm0 5173l0 3624 264 0c494,0 642,-280 642,-840l0 -1993c0,-576 -182,-790 -709,-790l-197 0zm5451 2899l-988 0 -132 2208 -1597 0 1153 -11762 2240 0 1121 11762 -1664 0 -132 -2208 0 0zm-923 -1334l840 0 -132 -2158c-49,-857 -181,-3574 -280,-5041l-66 0 -231 5041 -132 2158zm-14106 -8522l-2895 0c-706,0 -1280,573 -1280,1280l0 9804c0,707 573,1280 1280,1282l2893 0c708,-1 1282,-574 1283,-1282l0 -9804c-1,-707 -574,-1279 -1281,-1280m0 0l0 0 0 0z"/>
  <path class="fil1" d="M3457 2267l3 42c88,51 133,93 222,150 236,149 527,413 490,1324 66,198 95,588 157,714 123,244 205,402 241,633 0,0 35,358 81,384 244,55 174,79 209,121 38,49 179,47 179,178 49,65 85,134 112,204l0 -4736c0,-540 -437,-977 -977,-979l-936 0c150,54 235,117 285,216 121,10 264,281 40,681 99,66 22,164 -49,279 -21,37 -43,102 -110,97 -85,179 -188,352 -265,363 -24,29 -40,106 -5,142 114,51 253,121 321,186m1696 4391c-132,332 -453,550 -810,550 0,0 -1,0 -2,0 0,0 0,0 0,0 -481,0 -872,-390 -872,-872 0,0 0,0 0,0 0,-411 283,-756 667,-848 -100,-252 -313,-660 -376,-793 -60,-133 -203,-963 -234,-1127 -7,-36 -376,214 -377,230 -22,21 -277,688 -288,724 -5,23 -6,112 -6,112 0,0 126,16 198,235 72,219 289,1018 289,1018 0,0 -59,61 -61,58 276,922 179,1319 303,1590 155,381 198,331 331,652 96,233 202,1152 238,1192 149,189 229,336 229,442 0,107 -126,424 -80,608 28,109 43,351 93,397 0,0 46,91 24,132 -7,14 -20,35 -14,52 82,289 347,783 -82,1042l9 0c474,-74 823,-482 823,-961 0,-2 0,-4 0,-6l0 -4426z"/>
  <path class="fil2" d="M4051 10896c-157,-141 -52,-200 -59,-255 -103,-429 -444,-688 -268,-829 -43,-141 -132,-319 -129,-319 -530,-305 -982,-799 -1058,-872 -93,-101 -252,-202 -281,-284 -128,-117 -752,-1003 -898,-1330l-254 -36c-116,-471 -501,-866 -510,-1339 -3,-179 81,-562 112,-638 31,-78 179,-205 179,-205l0 -127c-553,16 -394,-41 -489,-256 -67,-149 -19,-182 5,-285 74,-305 321,-775 423,-988 31,-108 138,-368 138,-368 412,-840 566,-778 1056,-826l24 -35c491,-22 410,-58 479,-531 -71,31 -93,-148 -93,-148 -39,-269 74,-218 128,-223 12,-442 57,-582 376,-704l-1653 0c0,0 0,0 0,0 -540,0 -979,438 -979,979 0,0 0,1 0,1l0 9804c0,541 438,979 979,979l2894 0c-331,-179 -136,-520 -124,-1167m0 0l0 0 0 0z"/>
 </g>
</svg>
